<?xml version="1.0" encoding="UTF-8" standalone="no"?>
<svg
   viewBox="0 0 2800 500"
   version="1.1"
   id="svg1"
   sodipodi:docname="shbx.svg"
   inkscape:version="1.3 (0e150ed6c4, 2023-07-21)"
   width="2800"
   height="500"
   inkscape:export-filename="logo.png"
   inkscape:export-xdpi="96"
   inkscape:export-ydpi="96"
   xmlns:inkscape="http://www.inkscape.org/namespaces/inkscape"
   xmlns:sodipodi="http://sodipodi.sourceforge.net/DTD/sodipodi-0.dtd"
   xmlns="http://www.w3.org/2000/svg"
   xmlns:svg="http://www.w3.org/2000/svg">
  <defs
     id="defs1" />
  <sodipodi:namedview
     id="namedview1"
     pagecolor="#ffffff"
     bordercolor="#000000"
     borderopacity="0.25"
     inkscape:showpageshadow="2"
     inkscape:pageopacity="0.0"
     inkscape:pagecheckerboard="0"
     inkscape:deskcolor="#d1d1d1"
     inkscape:zoom="0.54052734"
     inkscape:cx="1170.1536"
     inkscape:cy="454.18609"
     inkscape:window-width="2560"
     inkscape:window-height="1371"
     inkscape:window-x="0"
     inkscape:window-y="0"
     inkscape:window-maximized="1"
     inkscape:current-layer="svg1" />
  <rect
     style="fill:#242424;fill-opacity:1;stroke-width:1.87581"
     id="rect1"
     width="2780"
     height="480"
     x="10"
     y="10"
     ry="97.821136" />
  <!--! Font Awesome Pro 6.4.2 by @fontawesome - https://fontawesome.com License - https://fontawesome.com/license (Commercial License) Copyright 2023 Fonticons, Inc. -->
  <g
     id="g1"
     transform="translate(9.6711181,-6.0000008)">
    <path
       d="m 167.77792,135.60476 c -8.88132,-8.88132 -8.88132,-23.23355 0,-32.11487 8.88133,-8.881328 23.3046,-8.881328 32.18592,0 l 136.41715,136.41715 c 8.88133,8.88132 8.88133,23.3046 0,32.18592 L 199.96384,408.51011 c -8.88132,8.88133 -23.30459,8.88133 -32.18592,0 -8.88132,-8.88132 -8.88132,-23.3046 0,-32.18592 L 288.06658,255.96448 Z m 175.21077,234.04067 h 204.62573 c 12.57596,0 22.7362,10.16024 22.7362,22.7362 0,12.57595 -10.16024,22.73619 -22.7362,22.73619 H 342.98869 c -12.57595,0 -22.73618,-10.16024 -22.73618,-22.73619 0,-12.57596 10.16023,-22.7362 22.73618,-22.7362 z"
       id="path1"
       style="fill:#d0ab18;fill-opacity:1;stroke-width:0.710506" />
    <text
       xml:space="preserve"
       style="font-size:408.987px;fill:#d0ab18;stroke-width:34.0823"
       x="675.21558"
       y="409.37012"
       id="text1"><tspan
         sodipodi:role="line"
         id="tspan1"
         x="675.21558"
         y="409.37012"
         style="font-style:normal;font-variant:normal;font-weight:normal;font-stretch:normal;font-family:Monospace;-inkscape-font-specification:Monospace;stroke-width:34.0823">Shellbox</tspan></text>
  </g>
</svg>
